<?xml version="1.0" encoding="UTF-8" standalone="no"?>
<!-- Created with Inkscape (http://www.inkscape.org/) -->

<svg
   width="1280"
   height="720"
   viewBox="0 0 338.66666 190.50001"
   version="1.1"
   id="svg114"
   inkscape:version="1.1.2 (0a00cf5339, 2022-02-04)"
   sodipodi:docname="KontaktLogo.svg"
   inkscape:export-filename="/home/lichtmaster/git/kontakt2026/KontaktLogo.png"
   inkscape:export-xdpi="96"
   inkscape:export-ydpi="96"
   xmlns:inkscape="http://www.inkscape.org/namespaces/inkscape"
   xmlns:sodipodi="http://sodipodi.sourceforge.net/DTD/sodipodi-0.dtd"
   xmlns="http://www.w3.org/2000/svg"
   xmlns:svg="http://www.w3.org/2000/svg">
  <sodipodi:namedview
     id="namedview116"
     pagecolor="#ffffff"
     bordercolor="#666666"
     borderopacity="1.0"
     inkscape:pageshadow="2"
     inkscape:pageopacity="0.0"
     inkscape:pagecheckerboard="0"
     inkscape:document-units="mm"
     showgrid="false"
     units="px"
     inkscape:zoom="0.19442866"
     inkscape:cx="-725.20172"
     inkscape:cy="-79.720756"
     inkscape:window-width="1920"
     inkscape:window-height="1136"
     inkscape:window-x="0"
     inkscape:window-y="27"
     inkscape:window-maximized="1"
     inkscape:current-layer="layer1" />
  <defs
     id="defs111" />
  <g
     inkscape:label="Layer 1"
     inkscape:groupmode="layer"
     id="layer1">
    <path
       inkscape:connector-curvature="0"
       id="path555"
       style="fill:#231f20;fill-opacity:1;fill-rule:nonzero;stroke:none;stroke-width:0.126549"
       d="M 83.40274,132.06337 64.54695,110.29439 81.605726,92.848383 H 69.10271 L 55.903632,107.22941 V 78.153503 h -9.427877 v 53.909867 h 9.427877 v -12.81056 l 2.594272,-2.67147 12.971255,15.48203 z m 17.13472,-39.764227 c -11.946247,0 -18.539437,7.15129 -18.539437,20.197227 0,13.04341 6.59319,20.19469 18.539437,20.19469 11.9462,0 18.55206,-7.15128 18.55206,-20.19469 0,-13.045937 -6.60586,-20.197227 -18.55206,-20.197227 m 0,32.611687 c -5.580809,0 -9.111524,-2.04252 -9.111524,-12.41446 0,-10.37576 3.530715,-12.417 9.111524,-12.417 5.5808,0 9.12414,2.04124 9.12414,12.417 0,10.37194 -3.54334,12.41446 -9.12414,12.41446 m 40.78671,-32.691397 c -9.97205,0 -17.67889,4.16472 -17.99525,4.32292 v 35.521017 h 9.42788 v -30.80581 c 2.12603,-0.39359 4.64433,-0.7074 7.31454,-0.7074 8.56734,0 9.26337,3.69393 9.26337,7.15254 v 24.36067 h 9.35197 V 108.4873 c 0,-10.216307 -6.44134,-16.267867 -17.36251,-16.267867 m 45.02607,8.723027 v -8.094077 h -9.26336 v -11.62985 h -9.44056 v 11.62985 h -6.59319 v 8.094077 h 6.59319 v 18.78236 c 0,8.09409 4.72027,12.96624 12.50303,12.96624 2.27788,0 4.31531,-0.39358 6.20089,-1.17818 v -7.77898 c -1.25283,0.54798 -2.67017,0.86183 -4.47982,0.86183 -3.4548,0 -4.78354,-0.86183 -4.78354,-4.32042 v -19.33285 z m 18.86846,-8.723027 c -4.72027,0 -8.73189,0.8656 -12.02215,2.20069 v 7.623287 c 2.89796,-1.17944 6.7577,-1.96404 11.4653,-1.96404 6.13765,0 8.32693,3.14222 8.32693,7.38669 -2.11337,-0.31532 -4.47982,-0.55179 -6.90955,-0.55179 -15.71737,0 -16.8943,9.43042 -16.8943,12.33854 0,6.52361 4.40392,13.43825 16.81836,13.43825 12.174,0 16.50197,-6.83744 16.50197,-13.20289 V 108.8796 c 0,-10.765517 -6.13761,-16.660167 -17.28656,-16.660167 m 7.85868,26.169037 c 0,3.61424 -1.89824,5.97187 -7.16269,5.97187 -4.94806,0 -7.37779,-2.19943 -7.37779,-6.28571 0,-3.22193 2.50567,-5.10751 8.87107,-5.10751 2.12604,0 4.01162,0.23532 5.66941,0.47075 z m 52.25203,13.6749 -18.85579,-21.76898 17.04615,-17.446007 H 251.02938 L 237.83034,107.22941 V 78.153503 h -9.44054 v 53.909867 h 9.44054 v -12.81056 l 2.59427,-2.67147 12.95859,15.48203 z m 23.81651,-31.12091 v -8.094077 h -9.27603 v -11.62985 h -9.42791 v 11.62985 h -6.60585 v 8.094077 h 6.60585 v 18.78236 c 0,8.09409 4.70764,12.96624 12.49039,12.96624 2.27788,0 4.32797,-0.39358 6.21355,-1.17818 v -7.77898 c -1.26549,0.54798 -2.68284,0.86183 -4.47981,0.86183 -3.46744,0 -4.79622,-0.86183 -4.79622,-4.32042 v -19.33285 h 9.27603" />
    <path
       inkscape:connector-curvature="0"
       id="path557"
       style="fill:#231f20;fill-opacity:1;fill-rule:nonzero;stroke:none;stroke-width:0.126549"
       d="m 135.68009,15.921819 c -15.84393,0 -28.82785,12.978856 -28.82785,28.822779 0,15.842655 12.98392,28.760775 28.82785,28.760775 15.84389,0 28.76457,-12.91812 28.76457,-28.760775 0,-15.843923 -12.92068,-28.822779 -28.76457,-28.822779 M 146.9556,44.744598 126.84697,24.575231 h 6.88426 l 20.1719,20.169367 -20.10862,20.107355 h -7.01082 z m 49.22748,-28.822779 c -15.84389,0 -28.81517,12.978856 -28.81517,28.822779 0,15.842655 12.97128,28.760775 28.81517,28.760775 15.84393,0 28.76457,-12.91812 28.76457,-28.760775 0,-15.843923 -12.92064,-28.822779 -28.76457,-28.822779 m -11.08567,28.882255 20.1719,20.108629 h -6.94753 L 178.21315,44.804074 198.2585,24.634711 h 7.01081 l -20.1719,20.169363" />
    <path
       inkscape:connector-curvature="0"
       id="path559"
       style="fill:#231f20;fill-opacity:1;fill-rule:nonzero;stroke:none;stroke-width:0.126549"
       d="m 46.311245,141.4204 v 23.25842 h 7.289217 c 7.251264,0 10.908499,-3.90529 10.908499,-11.64629 0,-7.70684 -3.657235,-11.61213 -10.908499,-11.61213 z m 7.112044,20.88687 h -4.593713 v -18.54951 h 4.593713 c 5.935152,0 8.580004,2.85872 8.580004,9.27477 0,6.41477 -2.644852,9.27474 -8.580004,9.27474 m 20.437644,-15.34276 c -2.163986,0 -3.935675,0.45303 -5.226462,0.90735 v 2.43985 c 0.658039,-0.24286 2.58161,-0.83647 5.087278,-0.83647 3.138381,0 5.087242,1.04528 5.087242,4.32417 0,0 -1.214846,-0.17326 -2.784072,-0.17326 -1.607179,0 -9.098858,-0.0366 -9.098858,5.71748 0,4.91641 5.011336,5.6137 7.276554,5.6137 2.27788,0 7.150033,-0.69729 7.150033,-5.50993 v -5.23026 c 0,-4.74179 -2.606936,-7.25252 -7.491715,-7.25252 m 4.986046,12.48278 c 0,2.65121 -2.480378,3.17383 -4.644364,3.17383 -2.151323,0 -4.770886,-0.52262 -4.770886,-3.2776 0,-3.20801 4.214079,-3.45227 6.314786,-3.45227 1.948861,0 3.100464,0.21021 3.100464,0.21021 z m 7.744793,-7.42589 c 0,-2.19691 2.151324,-2.6512 3.935639,-2.6512 1.809677,0 3.239684,0.62766 4.188789,1.18701 v -2.51198 c -1.151603,-0.55681 -2.657515,-1.08072 -4.467192,-1.08072 -4.530435,0 -6.175567,2.61576 -6.175567,5.05689 0,6.10092 9.351972,3.41682 9.351972,8.08899 0,1.98811 -2.163986,2.40569 -3.973664,2.40569 -1.822304,0 -3.631945,-0.59225 -5.163183,-1.53375 v 2.64991 c 1.252834,0.69729 2.961245,1.32498 5.264451,1.32498 3.973627,0 6.378064,-1.81345 6.378064,-4.84683 0,-6.8349 -9.339309,-4.67217 -9.339309,-8.08899 m 27.954648,0.27837 9.97206,-10.8794 h -3.37887 l -10.76932,11.99556 v -11.99556 h -2.51833 v 23.25841 h 2.51833 v -7.81188 l 2.54362,-2.78913 9.0989,10.60101 h 3.31555 z m 23.57606,-5.02145 v 10.21627 c 0,3.52186 -1.53124,5.12649 -4.77089,5.12649 -3.27763,0 -4.78354,-1.60463 -4.78354,-5.12649 v -10.21627 h -2.50567 v 10.07709 c 0,4.84679 2.64485,7.60177 7.28921,7.60177 4.63167,0 7.27656,-2.75498 7.27656,-7.60177 v -10.07709 z m 9.27603,-6.62357 h -2.50567 v 24.02403 h 2.50567 z m 8.16242,8.92548 h 4.49248 v -2.30191 h -4.49248 v -4.91645 h -2.51833 v 4.91645 h -3.02453 v 2.30191 h 3.02453 v 10.46053 c 0,4.46339 3.2776,4.91642 4.7076,4.91642 0.8732,0 1.64513,-0.1747 2.30321,-0.41762 v -2.37151 c -0.51886,0.24429 -1.1516,0.41888 -1.98682,0.41888 -1.84763,0 -2.50566,-0.66313 -2.50566,-2.40695 z m 19.31131,-2.30191 v 10.21627 c 0,3.52186 -1.53122,5.12649 -4.77087,5.12649 -3.2776,0 -4.78355,-1.60463 -4.78355,-5.12649 v -10.21627 h -2.50567 v 10.07709 c 0,4.84679 2.64489,7.60177 7.28922,7.60177 4.63168,0 7.2892,-2.75498 7.2892,-7.60177 v -10.07709 z m 14.81888,2.12854 v -2.40698 c -4.17609,0 -7.52963,1.29082 -8.44078,1.67426 v 16.00464 h 2.51829 v -14.36711 c 1.43001,-0.38218 3.51809,-0.83647 5.92249,-0.90481 m 8.65595,-2.44239 c -6.63114,0 -7.15,4.21914 -7.15,5.50867 v 18.65584 h 2.50567 v -6.83489 c 1.39202,0.41887 2.82202,0.66309 4.32797,0.66309 3.61928,0 7.94726,-1.4996 7.94726,-8.75212 0,-8.01939 -4.78355,-9.24059 -7.6309,-9.24059 m -0.31639,15.65661 c -1.50595,0 -2.96125,-0.2798 -4.32798,-0.87065 v -9.38107 c 0,-2.05769 1.56919,-3.10297 4.64433,-3.10297 2.18931,0 5.12523,0.73143 5.12523,6.90323 0,4.53298 -1.60714,6.45146 -5.44158,6.45146 m 19.58977,-13.21422 v -2.40698 c -4.17613,0 -7.52967,1.29082 -8.44082,1.67426 v 16.00464 h 2.51833 v -14.36711 c 1.43,-0.38218 3.51805,-0.83647 5.92249,-0.90481 m 8.58,-2.44239 c -3.73318,0 -8.16238,1.5692 -8.16238,8.99634 0,7.42718 4.4292,8.99637 8.16238,8.99637 3.73321,0 8.18771,-1.56919 8.18771,-8.99637 0,-7.42714 -4.4545,-8.99634 -8.18771,-8.99634 m 0,15.6908 c -3.93568,0 -5.64409,-2.021 -5.64409,-6.69446 0,-4.67217 1.70841,-6.69442 5.64409,-6.69442 3.97363,0 5.68204,2.02225 5.68204,6.69442 0,4.67346 -1.70841,6.69446 -5.68204,6.69446 m 11.68047,-18.47996 h 2.78407 v -2.75494 h -2.78407 z m 0.13918,3.10301 v 18.27111 c 0,2.26651 -0.51885,3.45226 -3.55604,3.52311 v 2.33484 c 4.0749,0 6.06171,-1.88303 6.06171,-5.71747 v -18.41159 z m 13.07249,-0.31388 c -7.90931,0 -7.6309,7.39296 -7.6309,9.24059 0,7.25252 4.31531,8.75212 7.94729,8.75212 2.48034,0 4.53044,-0.41763 6.21356,-1.21994 V 161.157 c -1.468,0.87065 -3.41682,1.28953 -5.97314,1.28953 -3.58133,0 -5.3277,-1.49834 -5.64406,-4.98601 h 12.69286 c 0,0 0.0631,-0.5581 0.0631,-1.21994 0,-0.66184 0.2529,-9.27603 -7.66888,-9.27603 m -5.08725,8.26365 c 0.24034,-4.28751 1.67043,-5.89214 5.08725,-5.89214 4.80887,0 5.09994,5.05563 5.09994,5.89214 z m 22.70287,0.0366 7.4284,-7.9865 h -3.41682 l -7.8207,8.5433 v -15.16688 h -2.50567 v 24.02403 h 2.50567 v -5.30114 l 2.16398,-2.33481 6.65647,7.63595 h 3.35354 z m 13.56605,-5.68459 h 4.49248 v -2.30191 h -4.49248 v -4.91646 h -2.51834 v 4.91646 h -3.03718 v 2.30191 h 3.03718 v 10.46053 c 0,4.46339 3.27761,4.91642 4.70761,4.91642 0.8732,0 1.64513,-0.1747 2.30321,-0.41763 v -2.3715 c -0.51886,0.24429 -1.15161,0.41888 -1.98682,0.41888 -1.84763,0 -2.50566,-0.66314 -2.50566,-2.40695 v -10.59975" />
  </g>
</svg>
